General
Complete name                    : Last Train to Freo.mkv
Format                           : Matroska
File size                        : 1 011 MiB
Duration                         : 1h 25mn
Overall bit rate                 : 1 655 Kbps


Video
ID                               : 1
Format                           : AVC
Codec ID                         : V_MPEG4/ISO/AVC
Duration                         : 1h 25mn
Bit rate                         : 1 174 Kbps
Width                            : 720 pixels
Height                           : 574 pixels
Display aspect ratio             : 16:9
Frame rate                       : 25.000 fps
Resolution                       : 8 bits
Colorimetry                      : 4:2:0
Scan type                        : Progressive
Bits/(Pixel*Frame)               : 0.114
Stream size                      : 717 MiB (71%)
Writing library                  : x264 core 79
 

Audio
ID                               : 2
Format                           : AC-3
Format/Info                      : Audio Coding 3
Codec ID                         : A_AC3
Duration                         : 1h 25mn
Bit rate mode                    : Constant
Bit rate                         : 448 Kbps
Channel(s)                       : 6 channels
Channel positions                : Front: L C R, Surround: L R, LFE
Sampling rate                    : 48.0 KHz
Stream size                      : 274 MiB (27%)
Language                         : English

Text #1
Language                         : Norwegian

Text #2
Language                         : Danish

Text #3
Language                         : Swedish

Text #4
Language                         : Finnish



